<svg xmlns="http://www.w3.org/2000/svg" viewBox="0 0 180 180" width="180" height="180">
  <defs>
    <linearGradient id="bg" x1="0%" y1="0%" x2="100%" y2="100%">
      <stop offset="0%" stop-color="#0f172a" />
      <stop offset="100%" stop-color="#1e293b" />
    </linearGradient>
    <linearGradient id="starGradient" x1="0%" y1="0%" x2="100%" y2="100%">
      <stop offset="0%" stop-color="#fbbf24" />
      <stop offset="50%" stop-color="#f59e0b" />
      <stop offset="100%" stop-color="#d97706" />
    </linearGradient>
  </defs>
  <!-- Background -->
  <rect width="180" height="180" rx="40" fill="url(#bg)" />
  <!-- Star shape (centered and scaled) -->
  <g transform="translate(90, 90) scale(2.8) translate(-25, -25)">
    <path d="M25 2 L31 18 L48 18 L34 28 L40 45 L25 35 L10 45 L16 28 L2 18 L19 18 Z" fill="url(#starGradient)" />
    <!-- Happy face -->
    <ellipse cx="18" cy="22" rx="2.5" ry="3" fill="#1e293b" />
    <ellipse cx="17.5" cy="21" rx="1" ry="1.2" fill="white" />
    <ellipse cx="32" cy="22" rx="2.5" ry="3" fill="#1e293b" />
    <ellipse cx="31.5" cy="21" rx="1" ry="1.2" fill="white" />
    <path d="M18 28 Q25 34 32 28" stroke="#1e293b" stroke-width="2" fill="none" stroke-linecap="round" />
    <circle cx="14" cy="27" r="2.5" fill="#fca5a5" opacity="0.6" />
    <circle cx="36" cy="27" r="2.5" fill="#fca5a5" opacity="0.6" />
  </g>
</svg>
